<svg width="34" height="33" viewBox="0 0 34 33" fill="none" xmlns="http://www.w3.org/2000/svg">
<path d="M21.7387 15.1758C22.4576 17.8512 20.8617 20.6022 18.1742 21.3203C15.4867 22.0383 12.7253 20.4516 12.0063 17.7762C11.2874 15.1007 12.8833 12.3498 15.5708 11.6317C18.2583 10.9136 21.0198 12.5004 21.7387 15.1758Z" fill="white"/>
<path fill-rule="evenodd" clip-rule="evenodd" d="M28.1487 3.28027C28.8888 4.30797 29.4436 5.4562 29.7882 6.67359C30.2916 8.1867 30.427 8.68895 31.4764 12.5818L31.4899 12.6316C32.5489 16.5725 32.66 17.0702 33.0074 18.6406C33.3077 19.8554 33.3992 21.1069 33.2764 22.35C33.1597 23.4146 32.8215 24.4435 32.2834 25.371C31.7453 26.2986 31.0191 27.1045 30.1511 27.7374C29.1312 28.4639 27.9948 29.0125 26.7905 29.3598C25.2672 29.8636 24.7601 29.9991 20.8029 31.0564C16.8458 32.1137 16.346 32.2248 14.7669 32.5723C13.5431 32.8567 12.2797 32.9312 11.0311 32.7924C9.96187 32.678 8.92855 32.3427 7.99717 31.808C7.06579 31.2733 6.25683 30.5509 5.62197 29.6871C4.89193 28.6701 4.34355 27.5407 3.99501 26.3405C3.48987 24.8226 3.35463 24.3193 2.29617 20.3803C1.23763 16.441 1.1264 15.9431 0.778639 14.371C0.477769 13.16 0.387071 11.9066 0.510465 10.6649C0.626387 9.60006 0.964233 8.5709 1.50239 7.64322C2.04055 6.71554 2.76716 5.90977 3.63574 5.27746C4.65519 4.55117 5.79083 4.0022 6.99434 3.65392C8.51801 3.15172 9.02521 3.0162 12.9824 1.95891C16.9395 0.901616 17.4389 0.788921 19.0164 0.441777C20.2338 0.143026 21.4931 0.0520914 22.7407 0.172845C23.8099 0.287686 24.8431 0.623359 25.7743 1.15842C26.7055 1.69348 27.5141 2.41615 28.1487 3.28027ZM9.3817 18.4782C10.4888 22.5981 14.7384 25.0399 18.877 23.9342C20.8638 23.4033 22.5581 22.1085 23.5871 20.3346C24.6162 18.5606 24.8958 16.4529 24.3643 14.475C23.8328 12.4971 22.5338 10.8112 20.7531 9.78796C18.9724 8.76476 16.8559 8.48816 14.8691 9.01902C10.7305 10.1248 8.27461 14.3582 9.3817 18.4782ZM22.3475 8.44764C22.583 8.4783 22.8223 8.46242 23.0517 8.40089C24.0158 8.14328 24.5879 7.15706 24.3296 6.19563C24.2683 5.96737 24.1624 5.75341 24.0179 5.56597C23.8735 5.37853 23.6934 5.22128 23.4879 5.1032C23.2824 4.98511 23.0555 4.90851 22.8202 4.87776C22.5849 4.84701 22.3458 4.86271 22.1165 4.92398C21.8872 4.98524 21.6723 5.09086 21.4839 5.23482C21.2955 5.37877 21.1374 5.55823 21.0187 5.76295C20.8999 5.96767 20.8228 6.19365 20.7917 6.42798C20.7606 6.66231 20.7762 6.9004 20.8376 7.12866C20.8987 7.35714 21.0045 7.57133 21.149 7.75897C21.2934 7.94661 21.4736 8.10402 21.6793 8.22219C21.8849 8.34036 22.112 8.41697 22.3475 8.44764Z" fill="white"/>
</svg>
