<svg  viewBox="0 0 34 33" fill="none" xmlns="http://www.w3.org/2000/svg">
<path d="M29.7877 6.67269C29.4431 5.4553 28.8883 4.30707 28.1482 3.27937C27.5136 2.41525 26.705 1.69258 25.7738 1.15752C24.8426 0.622462 23.8094 0.286789 22.7402 0.171948C21.4926 0.0511941 20.2333 0.142129 19.0159 0.44088C17.4384 0.788024 16.939 0.900719 12.9819 1.95801C9.02475 3.0153 8.51755 3.15082 6.99388 3.65302C5.79037 4.0013 4.65473 4.55027 3.63528 5.27656C2.7667 5.90887 2.04009 6.71464 1.50193 7.64232C0.963774 8.57 0.625928 9.59916 0.510006 10.664C0.386612 11.9057 0.47731 13.1591 0.77818 14.3701C1.12594 15.9422 1.23708 16.4398 2.29562 20.3791C3.35416 24.3184 3.4894 24.8217 3.99455 26.3396C4.34309 27.5398 4.89147 28.6692 5.62151 29.6862C6.25637 30.55 7.06533 31.2724 7.99671 31.8071C8.92809 32.3418 9.96141 32.6771 11.0306 32.7915C12.2792 32.9303 13.5426 32.8558 14.7664 32.5714C16.3455 32.2239 16.8453 32.1128 20.8024 31.0555C24.7596 29.9982 25.2667 29.8627 26.79 29.3589C27.9943 29.0116 29.1307 28.463 30.1506 27.7365C31.0186 27.1036 31.7448 26.2977 32.2829 25.3701C32.821 24.4426 33.1592 23.4137 33.2759 22.3491C33.3987 21.106 33.3072 19.8545 33.0069 18.6397C32.6595 17.0693 32.5484 16.5716 31.4894 12.6307C30.4277 8.6923 30.2933 8.19223 29.7877 6.67269ZM18.8765 23.9333C14.7379 25.039 10.4883 22.5972 9.38124 18.4773C8.27415 14.3573 10.73 10.1239 14.8686 9.01812C16.8554 8.48726 18.9719 8.76386 20.7526 9.78706C22.5333 10.8103 23.8323 12.4962 24.3638 14.4741C24.8953 16.452 24.6157 18.5597 23.5866 20.3337C22.5576 22.1076 20.8633 23.4024 18.8765 23.9333ZM23.0512 8.39999C22.8218 8.46152 22.5825 8.4774 22.347 8.44674C22.1115 8.41607 21.8844 8.33946 21.6788 8.22129C21.4731 8.10312 21.2929 7.94571 21.1485 7.75807C21.004 7.57043 20.8982 7.35624 20.8371 7.12776C20.7757 6.8995 20.7601 6.66141 20.7912 6.42708C20.8223 6.19275 20.8994 5.96677 21.0182 5.76205C21.1369 5.55733 21.295 5.37787 21.4834 5.23392C21.6718 5.08996 21.8867 4.98434 22.116 4.92308C22.3453 4.86181 22.5844 4.84611 22.8197 4.87686C23.055 4.90761 23.2819 4.98421 23.4874 5.1023C23.6929 5.22038 23.873 5.37763 24.0174 5.56507C24.1619 5.75251 24.2678 5.96647 24.3291 6.19473C24.5874 7.15616 24.0153 8.14238 23.0512 8.39999Z" fill="white"/>
<path d="M18.1742 21.32C20.8617 20.6019 22.4576 17.8509 21.7387 15.1755C21.0198 12.5001 18.2583 10.9133 15.5708 11.6314C12.8833 12.3495 11.2874 15.1004 12.0063 17.7759C12.7253 20.4513 15.4867 22.038 18.1742 21.32Z" fill=""/>
</svg>
