<svg width="150" height="44" viewBox="0 0 150 44" fill="none" xmlns="http://www.w3.org/2000/svg">
<path d="M66 39H63.5398L57.3753 31.2876V39H55V28H57.5026L63.6247 35.6813V28H66V39Z" fill="white"/>
<path d="M71 39H69V28H71V39Z" fill="white"/>
<path d="M84 29.9788H76.6952V32.7833H83.5713V34.7465H76.6952V39H74V28H84V29.9788Z" fill="white"/>
<path d="M95 30.0099H91.2768V39H88.7375V30.0099H85V28H95V30.0099Z" fill="white"/>
<path d="M106 39H103.052L102.158 36.9277H96.7675L95.874 39H93L98.0778 28H100.922L106 39ZM101.309 34.9802L99.4777 30.68L97.6162 34.9802H101.309Z" fill="white"/>
<path d="M107 28H113.257C113.621 28 113.922 28.0105 114.158 28.0312C114.395 28.0519 114.7 28.1351 115.074 28.2805C115.447 28.4155 115.743 28.6233 115.962 28.9038C116.326 29.3712 116.508 29.9683 116.508 30.6955C116.508 31.8589 115.975 32.6379 114.91 33.0326C116.294 33.3962 116.991 34.3206 117 35.8059C117 36.5746 116.859 37.1926 116.576 37.66C116.394 37.9717 116.185 38.2261 115.948 38.4234C115.72 38.6209 115.452 38.7611 115.142 38.8441C114.842 38.9169 114.596 38.9636 114.404 38.9843C114.213 38.9948 113.954 39 113.626 39H107V28ZM109.391 32.3159H113.025C113.799 32.3159 114.186 31.9108 114.186 31.1006C114.177 30.3008 113.794 29.9009 113.038 29.9009H109.391V32.3159ZM109.391 37.0679H113.161C114.118 37.0679 114.596 36.5694 114.596 35.5722C114.596 34.6789 114.167 34.2323 113.311 34.2323H109.391V37.0679Z" fill="white"/>
<path d="M127 39H119V28H121.489V36.9744H127V39Z" fill="white"/>
<path d="M138 39H128V28H137.705V29.9788H130.611V32.4561H137.469V34.4193H130.611V37.0368H138V39Z" fill="white"/>
<path d="M139 36.0814L141.352 35.48C141.858 36.5555 143.022 37.0934 144.843 37.0934C145.048 37.0934 145.257 37.0835 145.471 37.064C145.686 37.0346 145.958 36.9809 146.29 36.9026C146.621 36.8245 146.888 36.6875 147.093 36.492C147.307 36.2866 147.414 36.0325 147.414 35.7294C147.414 35.5925 147.39 35.4703 147.341 35.3626C147.302 35.2551 147.22 35.1623 147.093 35.084C146.976 35.0057 146.864 34.9423 146.757 34.8934C146.66 34.8445 146.504 34.7955 146.29 34.7466C146.075 34.6977 145.9 34.6635 145.764 34.644C145.637 34.6146 145.432 34.5805 145.15 34.5414C144.332 34.4143 143.762 34.3263 143.441 34.2774C143.12 34.2186 142.764 34.1405 142.374 34.0426C141.985 33.9449 141.659 33.8325 141.396 33.7054C140.315 33.1969 139.774 32.3755 139.774 31.2414C139.774 30.508 140.003 29.892 140.461 29.3934C140.918 28.8849 141.498 28.528 142.199 28.3226C142.9 28.1075 143.699 28 144.595 28C147.273 28 149.075 28.8263 150 30.4786L147.56 31.0946C147.122 30.2635 146.109 29.848 144.522 29.848C143.022 29.848 142.272 30.2489 142.272 31.0506C142.272 31.4711 142.545 31.7694 143.09 31.9454C143.324 32.0137 144.429 32.224 146.406 32.576C146.767 32.6445 147.064 32.7031 147.297 32.752C147.531 32.8009 147.828 32.8986 148.189 33.0454C148.559 33.192 148.851 33.3631 149.065 33.5586C149.279 33.7543 149.469 34.0231 149.635 34.3654C149.8 34.6977 149.883 35.084 149.883 35.524C149.883 37.8414 148.135 39 144.639 39C143.178 39 141.999 38.7605 141.104 38.2814C140.217 37.8023 139.516 37.0689 139 36.0814Z" fill="white"/>
<path fill-rule="evenodd" clip-rule="evenodd" d="M42.1058 6.11383C40.4587 11.3898 34.4842 28.2456 33.0561 31.6453C32.2314 33.6091 30.9325 36.1551 30.1698 37.3032C29.4071 38.4514 28.7831 39.4828 28.7831 39.5953C28.7831 39.7078 29.4029 39.7956 30.1607 39.7908C32.1247 39.7785 34.0419 38.5703 36.0972 36.0501C38.6399 32.933 39.9505 29.3441 40.7514 23.3058C42.0034 13.8687 43.1009 4.43107 42.9926 4.03284C42.9321 3.80988 42.5327 4.74624 42.1058 6.11383ZM10.6305 9.8891C8.66183 10.7392 5.50012 14.6552 4.16555 17.896C3.59658 19.2778 2.85729 21.9546 2.52206 23.8444C1.89868 27.3601 -0.151874 43.8021 0.00895598 43.999C0.0574812 44.059 1.07315 41.4843 2.26502 38.2774C10.8333 15.2275 11.1695 14.4295 13.6049 11.3374C14.8665 9.73569 14.8775 9.69754 14.1394 9.4551C13.0304 9.09104 12.258 9.18643 10.6305 9.8891ZM14.8191 12.4852C13.646 13.4545 11.2829 17.0263 11.2804 17.8343C11.2794 18.1038 12.0444 18.8017 12.9806 19.3847C14.7407 20.4817 26.1065 25.8892 26.6514 25.8892C26.821 25.8892 26.5847 25.3975 26.127 24.7962C25.669 24.195 23.8242 21.259 22.0271 18.2719C20.2299 15.2847 18.4296 12.5571 18.0264 12.2109C17.0173 11.3441 16.1058 11.422 14.8191 12.4852ZM18.6597 27.5784C19.8847 29.3816 21.5655 31.955 22.3946 33.2963C24.5642 36.8061 25.7516 37.9396 26.9513 37.6454C28.3973 37.2909 29.9723 35.6289 31.0541 33.3162C31.5847 32.1823 32.0198 31.0424 32.0217 30.7833C32.0242 30.3668 17.7955 24.2995 16.8153 24.2995C16.605 24.2995 17.435 25.7747 18.6597 27.5784Z" fill="url(#paint0_radial_515_3107)"/>
<path fill-rule="evenodd" clip-rule="evenodd" d="M42.1058 6.11383C40.4587 11.3898 34.4842 28.2456 33.0561 31.6453C32.2314 33.6091 30.9325 36.1551 30.1698 37.3032C29.4071 38.4514 28.7831 39.4828 28.7831 39.5953C28.7831 39.7078 29.4029 39.7956 30.1607 39.7908C32.1247 39.7785 34.0419 38.5703 36.0972 36.0501C38.6399 32.933 39.9505 29.3441 40.7514 23.3058C42.0034 13.8687 43.1009 4.43107 42.9926 4.03284C42.9321 3.80988 42.5327 4.74624 42.1058 6.11383ZM10.6305 9.8891C8.66183 10.7392 5.50012 14.6552 4.16555 17.896C3.59658 19.2778 2.85729 21.9546 2.52206 23.8444C1.89868 27.3601 -0.151874 43.8021 0.00895598 43.999C0.0574812 44.059 1.07315 41.4843 2.26502 38.2774C10.8333 15.2275 11.1695 14.4295 13.6049 11.3374C14.8665 9.73569 14.8775 9.69754 14.1394 9.4551C13.0304 9.09104 12.258 9.18643 10.6305 9.8891ZM14.8191 12.4852C13.646 13.4545 11.2829 17.0263 11.2804 17.8343C11.2794 18.1038 12.0444 18.8017 12.9806 19.3847C14.7407 20.4817 26.1065 25.8892 26.6514 25.8892C26.821 25.8892 26.5847 25.3975 26.127 24.7962C25.669 24.195 23.8242 21.259 22.0271 18.2719C20.2299 15.2847 18.4296 12.5571 18.0264 12.2109C17.0173 11.3441 16.1058 11.422 14.8191 12.4852ZM18.6597 27.5784C19.8847 29.3816 21.5655 31.955 22.3946 33.2963C24.5642 36.8061 25.7516 37.9396 26.9513 37.6454C28.3973 37.2909 29.9723 35.6289 31.0541 33.3162C31.5847 32.1823 32.0198 31.0424 32.0217 30.7833C32.0242 30.3668 17.7955 24.2995 16.8153 24.2995C16.605 24.2995 17.435 25.7747 18.6597 27.5784Z" fill="url(#paint1_radial_515_3107)"/>
<path opacity="0.8" d="M54.882 17V5.66H57.696C58.3773 5.66 58.9187 5.786 59.32 6.038C59.7307 6.28067 60.0293 6.63533 60.216 7.102C60.4027 7.56867 60.496 8.13333 60.496 8.796C60.496 9.39333 60.3887 9.91133 60.174 10.35C59.9687 10.7887 59.6607 11.1293 59.25 11.372C58.8393 11.6053 58.326 11.722 57.71 11.722H56.464V17H54.882ZM56.464 10.588H57.192C57.6493 10.588 58.0087 10.5367 58.27 10.434C58.5313 10.3313 58.718 10.154 58.83 9.902C58.942 9.64067 58.998 9.27667 58.998 8.81C58.998 8.26867 58.956 7.85333 58.872 7.564C58.7973 7.27467 58.634 7.074 58.382 6.962C58.13 6.85 57.738 6.794 57.206 6.794H56.464V10.588ZM63.6265 17.112C63.0292 17.112 62.5579 16.9907 62.2125 16.748C61.8672 16.5053 61.6199 16.16 61.4705 15.712C61.3305 15.264 61.2605 14.7367 61.2605 14.13V11.778C61.2605 11.1713 61.3305 10.644 61.4705 10.196C61.6199 9.748 61.8672 9.40267 62.2125 9.16C62.5579 8.91733 63.0292 8.796 63.6265 8.796C64.2239 8.796 64.6905 8.91733 65.0265 9.16C65.3719 9.40267 65.6145 9.748 65.7545 10.196C65.9039 10.644 65.9785 11.1713 65.9785 11.778V14.13C65.9785 14.7367 65.9039 15.264 65.7545 15.712C65.6145 16.16 65.3719 16.5053 65.0265 16.748C64.6905 16.9907 64.2239 17.112 63.6265 17.112ZM63.6265 16.006C63.9159 16.006 64.1165 15.922 64.2285 15.754C64.3499 15.586 64.4199 15.3667 64.4385 15.096C64.4665 14.816 64.4805 14.5267 64.4805 14.228V11.694C64.4805 11.386 64.4665 11.0967 64.4385 10.826C64.4199 10.5553 64.3499 10.336 64.2285 10.168C64.1165 9.99067 63.9159 9.902 63.6265 9.902C63.3372 9.902 63.1319 9.99067 63.0105 10.168C62.8892 10.336 62.8145 10.5553 62.7865 10.826C62.7679 11.0967 62.7585 11.386 62.7585 11.694V14.228C62.7585 14.5267 62.7679 14.816 62.7865 15.096C62.8145 15.3667 62.8892 15.586 63.0105 15.754C63.1319 15.922 63.3372 16.006 63.6265 16.006ZM68.1764 17L66.8744 8.908H68.1064L68.9464 14.872L70.0244 8.908H71.1724L72.2504 14.844L73.0904 8.908H74.3224L72.9784 17H71.7184L70.6124 11.288L69.5204 17H68.1764ZM77.7089 17.112C77.0742 17.112 76.5842 16.9907 76.2389 16.748C75.8936 16.496 75.6509 16.132 75.5109 15.656C75.3802 15.1707 75.3149 14.578 75.3149 13.878V12.03C75.3149 11.3113 75.3849 10.714 75.5249 10.238C75.6649 9.762 75.9076 9.40267 76.2529 9.16C76.6076 8.91733 77.0929 8.796 77.7089 8.796C78.3902 8.796 78.8896 8.936 79.2069 9.216C79.5336 9.496 79.7482 9.902 79.8509 10.434C79.9536 10.9567 80.0049 11.5867 80.0049 12.324V12.982H76.8129V14.606C76.8129 14.9327 76.8409 15.1987 76.8969 15.404C76.9622 15.6093 77.0602 15.7633 77.1909 15.866C77.3309 15.9593 77.5082 16.006 77.7229 16.006C77.9469 16.006 78.1149 15.9547 78.2269 15.852C78.3482 15.74 78.4276 15.586 78.4649 15.39C78.5116 15.1847 78.5349 14.9467 78.5349 14.676V14.186H79.9909V14.494C79.9909 15.306 79.8182 15.9453 79.4729 16.412C79.1276 16.8787 78.5396 17.112 77.7089 17.112ZM76.8129 12.17H78.5349V11.442C78.5349 11.106 78.5162 10.826 78.4789 10.602C78.4416 10.3687 78.3622 10.196 78.2409 10.084C78.1289 9.96267 77.9469 9.902 77.6949 9.902C77.4522 9.902 77.2656 9.958 77.1349 10.07C77.0136 10.182 76.9296 10.3733 76.8829 10.644C76.8362 10.9053 76.8129 11.2693 76.8129 11.736V12.17ZM81.4035 17V8.908H82.9015V10.056C83.2001 9.56133 83.4988 9.23 83.7975 9.062C84.0961 8.894 84.3948 8.81 84.6935 8.81C84.7308 8.81 84.7635 8.81 84.7915 8.81C84.8288 8.81 84.8755 8.81467 84.9315 8.824V10.476C84.8195 10.4293 84.6888 10.392 84.5395 10.364C84.3995 10.3267 84.2548 10.308 84.1055 10.308C83.8721 10.308 83.6575 10.364 83.4615 10.476C83.2748 10.5787 83.0881 10.784 82.9015 11.092V17H81.4035ZM88.0995 17.112C87.4648 17.112 86.9748 16.9907 86.6295 16.748C86.2842 16.496 86.0415 16.132 85.9015 15.656C85.7708 15.1707 85.7055 14.578 85.7055 13.878V12.03C85.7055 11.3113 85.7755 10.714 85.9155 10.238C86.0555 9.762 86.2982 9.40267 86.6435 9.16C86.9982 8.91733 87.4835 8.796 88.0995 8.796C88.7808 8.796 89.2802 8.936 89.5975 9.216C89.9242 9.496 90.1388 9.902 90.2415 10.434C90.3442 10.9567 90.3955 11.5867 90.3955 12.324V12.982H87.2035V14.606C87.2035 14.9327 87.2315 15.1987 87.2875 15.404C87.3528 15.6093 87.4508 15.7633 87.5815 15.866C87.7215 15.9593 87.8988 16.006 88.1135 16.006C88.3375 16.006 88.5055 15.9547 88.6175 15.852C88.7388 15.74 88.8182 15.586 88.8555 15.39C88.9022 15.1847 88.9255 14.9467 88.9255 14.676V14.186H90.3815V14.494C90.3815 15.306 90.2088 15.9453 89.8635 16.412C89.5182 16.8787 88.9302 17.112 88.0995 17.112ZM87.2035 12.17H88.9255V11.442C88.9255 11.106 88.9068 10.826 88.8695 10.602C88.8322 10.3687 88.7528 10.196 88.6315 10.084C88.5195 9.96267 88.3375 9.902 88.0855 9.902C87.8428 9.902 87.6562 9.958 87.5255 10.07C87.4042 10.182 87.3202 10.3733 87.2735 10.644C87.2268 10.9053 87.2035 11.2693 87.2035 11.736V12.17ZM93.6281 17.112C92.9468 17.112 92.4381 16.8647 92.1021 16.37C91.7661 15.866 91.5981 15.0167 91.5981 13.822V12.254C91.5981 11.638 91.6494 11.0687 91.7521 10.546C91.8548 10.014 92.0461 9.58933 92.3261 9.272C92.6154 8.95467 93.0354 8.796 93.5861 8.796C93.8568 8.796 94.1041 8.85667 94.3281 8.978C94.5521 9.09933 94.7528 9.24867 94.9301 9.426V5.66H96.4281V17H94.9301V16.482C94.7528 16.6687 94.5568 16.8227 94.3421 16.944C94.1368 17.056 93.8988 17.112 93.6281 17.112ZM94.0061 15.936C94.1461 15.936 94.2954 15.9127 94.4541 15.866C94.6128 15.81 94.7714 15.7307 94.9301 15.628V10.322C94.7994 10.2287 94.6548 10.1493 94.4961 10.084C94.3374 10.0093 94.1648 9.972 93.9781 9.972C93.6328 9.972 93.3994 10.14 93.2781 10.476C93.1568 10.8027 93.0961 11.1993 93.0961 11.666V13.948C93.0961 14.3213 93.1148 14.662 93.1521 14.97C93.1988 15.2687 93.2874 15.5067 93.4181 15.684C93.5488 15.852 93.7448 15.936 94.0061 15.936ZM104.043 17.112C103.753 17.112 103.492 17.042 103.259 16.902C103.035 16.7527 102.839 16.5893 102.671 16.412V17H101.173V5.66H102.671V9.552C102.848 9.34667 103.058 9.16933 103.301 9.02C103.553 8.87067 103.851 8.796 104.197 8.796C104.617 8.796 104.948 8.908 105.191 9.132C105.443 9.34667 105.629 9.622 105.751 9.958C105.872 10.2847 105.951 10.6207 105.989 10.966C106.026 11.302 106.045 11.5913 106.045 11.834V13.794C106.045 14.3633 105.989 14.9047 105.877 15.418C105.765 15.922 105.564 16.3327 105.275 16.65C104.985 16.958 104.575 17.112 104.043 17.112ZM103.735 15.936C103.996 15.936 104.183 15.8427 104.295 15.656C104.407 15.46 104.477 15.1987 104.505 14.872C104.533 14.5453 104.547 14.186 104.547 13.794V11.834C104.547 11.498 104.528 11.19 104.491 10.91C104.453 10.6207 104.374 10.392 104.253 10.224C104.131 10.056 103.94 9.972 103.679 9.972C103.483 9.972 103.296 10.014 103.119 10.098C102.951 10.182 102.801 10.2753 102.671 10.378V15.572C102.801 15.6747 102.955 15.7633 103.133 15.838C103.319 15.9033 103.52 15.936 103.735 15.936ZM107.28 19.03V17.882C107.644 17.882 107.934 17.8633 108.148 17.826C108.363 17.798 108.517 17.7373 108.61 17.644C108.704 17.56 108.75 17.4387 108.75 17.28C108.75 17.196 108.718 17.0093 108.652 16.72C108.587 16.4307 108.517 16.1227 108.442 15.796L106.818 8.908H108.33L109.422 14.956L110.472 8.908H111.984L110.052 17.448C109.968 17.84 109.814 18.148 109.59 18.372C109.366 18.6053 109.077 18.7733 108.722 18.876C108.377 18.9787 107.957 19.03 107.462 19.03H107.28Z" fill="white"/>
<defs>
<radialGradient id="paint0_radial_515_3107" cx="0" cy="0" r="1" gradientUnits="userSpaceOnUse" gradientTransform="translate(21.5 44.4591) rotate(-52.8213) scale(50.7799 56.387)">
<stop stop-color="#0342E7"/>
<stop offset="0.536494" stop-color="#CB24FF"/>
</radialGradient>
<radialGradient id="paint1_radial_515_3107" cx="0" cy="0" r="1" gradientUnits="userSpaceOnUse" gradientTransform="translate(-2.49214 20.0714) rotate(42.6291) scale(35.3318 39.8368)">
<stop stop-color="#16A9FE"/>
<stop offset="1" stop-color="#16A9FE" stop-opacity="0"/>
</radialGradient>
</defs>
</svg>
