<svg width="144" height="34" viewBox="0 0 144 34" fill="none" xmlns="http://www.w3.org/2000/svg">
<g clip-path="url(#clip0_1893_3774)">
<path d="M60.3335 23.5819H57.8576L51.6537 15.8418V23.5819H49.2632V12.5424H51.7817L57.943 20.2513V12.5424H60.3335V23.5819Z" fill="white"/>
<path d="M65.7471 23.5819H63.2285V12.5424H65.7471V23.5819Z" fill="white"/>
<path d="M77.856 14.5283H71.0687V17.3429H77.4577V19.3131H71.0687V23.5819H68.5645V12.5424H77.856V14.5283Z" fill="white"/>
<path d="M88.2719 14.5595H84.5583V23.5819H82.0254V14.5595H78.2974V12.5424H88.2719V14.5595Z" fill="white"/>
<path d="M99.1643 23.5819H96.3469L95.4931 21.5022H90.3422L89.4884 23.5819H86.7422L91.5943 12.5424H94.312L99.1643 23.5819ZM94.682 19.5477L92.9319 15.232L91.1532 19.5477H94.682Z" fill="white"/>
<path d="M100.274 12.5424H106.791C107.17 12.5424 107.483 12.5529 107.73 12.5737C107.977 12.5945 108.294 12.6779 108.683 12.8238C109.072 12.9594 109.381 13.1679 109.608 13.4494C109.988 13.9185 110.178 14.5178 110.178 15.2476C110.178 16.4151 109.623 17.197 108.513 17.593C109.955 17.9579 110.68 18.8857 110.69 20.3763C110.69 21.1478 110.543 21.768 110.249 22.2371C110.059 22.5499 109.841 22.8053 109.594 23.0033C109.357 23.2015 109.077 23.3422 108.755 23.4255C108.442 23.4985 108.185 23.5454 107.986 23.5662C107.787 23.5767 107.517 23.5819 107.175 23.5819H100.274V12.5424ZM102.764 16.8738H106.549C107.355 16.8738 107.758 16.4672 107.758 15.6542C107.749 14.8515 107.351 14.4501 106.563 14.4501H102.764V16.8738ZM102.764 21.6429H106.691C107.687 21.6429 108.185 21.1426 108.185 20.1418C108.185 19.2453 107.74 18.7971 106.848 18.7971H102.764V21.6429Z" fill="white"/>
<path d="M121.127 23.5819H113.031V12.5424H115.549V21.5491H121.127V23.5819Z" fill="white"/>
<path d="M132.155 23.5819H122.507V12.5424H131.87V14.5283H125.026V17.0145H131.642V18.9848H125.026V21.6117H132.155V23.5819Z" fill="white"/>
<path d="M133.286 20.8143L135.577 20.1732C136.07 21.3198 137.203 21.8933 138.977 21.8933C139.177 21.8933 139.38 21.8827 139.589 21.8619C139.798 21.8306 140.063 21.7733 140.386 21.6899C140.709 21.6066 140.969 21.4605 141.169 21.2521C141.377 21.0332 141.482 20.7622 141.482 20.4391C141.482 20.2931 141.458 20.1628 141.41 20.048C141.373 19.9334 141.292 19.8344 141.169 19.751C141.055 19.6676 140.946 19.5999 140.841 19.5478C140.746 19.4957 140.595 19.4434 140.386 19.3913C140.177 19.3392 140.006 19.3027 139.874 19.2819C139.75 19.2506 139.551 19.2142 139.276 19.1725C138.479 19.037 137.924 18.9431 137.611 18.891C137.298 18.8284 136.952 18.7451 136.573 18.6407C136.193 18.5365 135.875 18.4167 135.619 18.2812C134.566 17.7391 134.04 16.8634 134.04 15.6542C134.04 14.8724 134.263 14.2156 134.709 13.684C135.154 13.1419 135.719 12.7614 136.402 12.5424C137.085 12.3131 137.863 12.1985 138.735 12.1985C141.344 12.1985 143.099 13.0794 144 14.841L141.624 15.4978C141.197 14.6117 140.21 14.1687 138.664 14.1687C137.203 14.1687 136.473 14.5961 136.473 15.4509C136.473 15.8992 136.739 16.2172 137.27 16.4048C137.497 16.4777 138.574 16.7018 140.5 17.0771C140.851 17.1502 141.14 17.2127 141.368 17.2648C141.595 17.3169 141.885 17.4211 142.236 17.5775C142.596 17.7339 142.881 17.9163 143.09 18.1247C143.298 18.3333 143.483 18.62 143.644 18.9848C143.806 19.3392 143.886 19.751 143.886 20.2201C143.886 22.6907 142.184 23.926 138.778 23.926C137.355 23.926 136.207 23.6706 135.335 23.1598C134.471 22.649 133.788 21.8671 133.286 20.8143Z" fill="white"/>
<path fill-rule="evenodd" clip-rule="evenodd" d="M35.8698 1.79675C34.4667 6.28136 29.377 20.6087 28.1604 23.4985C27.4578 25.1677 26.3513 27.3318 25.7016 28.3078C25.0518 29.2837 24.5203 30.1603 24.5203 30.256C24.5203 30.3516 25.0482 30.4262 25.6938 30.4222C27.367 30.4117 29.0002 29.3848 30.7511 27.2426C32.9172 24.5931 34.0337 21.5425 34.716 16.41C35.7825 8.38836 36.7176 0.366412 36.6253 0.0279131C36.5737 -0.161606 36.2335 0.634306 35.8698 1.79675ZM9.05606 5.00574C7.37899 5.72834 4.68553 9.05691 3.54862 11.8116C3.06392 12.9861 2.43412 15.2614 2.14854 16.8677C1.61748 19.8561 -0.129381 33.8318 0.00762958 33.9991C0.0489681 34.0501 0.914213 31.8617 1.92956 29.1358C9.22888 9.54339 9.51529 8.86503 11.59 6.23676C12.6647 4.87533 12.6741 4.84291 12.0453 4.63684C11.1006 4.32739 10.4425 4.40847 9.05606 5.00574ZM12.6244 7.2124C11.625 8.03635 9.61188 11.0724 9.60973 11.7591C9.60891 11.9882 10.2606 12.5814 11.0581 13.077C12.5576 14.0094 22.2401 18.6059 22.7042 18.6059C22.8487 18.6059 22.6474 18.1879 22.2575 17.6768C21.8673 17.1657 20.2957 14.6702 18.7648 12.1311C17.2338 9.59203 15.7001 7.27354 15.3566 6.9793C14.497 6.24251 13.7205 6.30872 12.6244 7.2124ZM15.8962 20.0416C16.9397 21.5743 18.3716 23.7617 19.0779 24.9019C20.9262 27.8851 21.9377 28.8487 22.9597 28.5986C24.1916 28.2973 25.5334 26.8845 26.4549 24.9188C26.9069 23.9549 27.2776 22.986 27.2792 22.7658C27.2813 22.4118 15.1599 17.2546 14.3249 17.2546C14.1457 17.2546 14.8529 18.5085 15.8962 20.0416Z" fill="white"/>
<path fill-rule="evenodd" clip-rule="evenodd" d="M35.8698 1.79675C34.4667 6.28136 29.377 20.6087 28.1604 23.4985C27.4578 25.1677 26.3513 27.3318 25.7016 28.3078C25.0518 29.2837 24.5203 30.1603 24.5203 30.256C24.5203 30.3516 25.0482 30.4262 25.6938 30.4222C27.367 30.4117 29.0002 29.3848 30.7511 27.2426C32.9172 24.5931 34.0337 21.5425 34.716 16.41C35.7825 8.38836 36.7176 0.366412 36.6253 0.0279131C36.5737 -0.161606 36.2335 0.634306 35.8698 1.79675ZM9.05606 5.00574C7.37899 5.72834 4.68553 9.05691 3.54862 11.8116C3.06392 12.9861 2.43412 15.2614 2.14854 16.8677C1.61748 19.8561 -0.129381 33.8318 0.00762958 33.9991C0.0489681 34.0501 0.914213 31.8617 1.92956 29.1358C9.22888 9.54339 9.51529 8.86503 11.59 6.23676C12.6647 4.87533 12.6741 4.84291 12.0453 4.63684C11.1006 4.32739 10.4425 4.40847 9.05606 5.00574ZM12.6244 7.2124C11.625 8.03635 9.61188 11.0724 9.60973 11.7591C9.60891 11.9882 10.2606 12.5814 11.0581 13.077C12.5576 14.0094 22.2401 18.6059 22.7042 18.6059C22.8487 18.6059 22.6474 18.1879 22.2575 17.6768C21.8673 17.1657 20.2957 14.6702 18.7648 12.1311C17.2338 9.59203 15.7001 7.27354 15.3566 6.9793C14.497 6.24251 13.7205 6.30872 12.6244 7.2124ZM15.8962 20.0416C16.9397 21.5743 18.3716 23.7617 19.0779 24.9019C20.9262 27.8851 21.9377 28.8487 22.9597 28.5986C24.1916 28.2973 25.5334 26.8845 26.4549 24.9188C26.9069 23.9549 27.2776 22.986 27.2792 22.7658C27.2813 22.4118 15.1599 17.2546 14.3249 17.2546C14.1457 17.2546 14.8529 18.5085 15.8962 20.0416Z" fill="white"/>
</g>
<defs>
<radialGradient id="paint0_radial_1893_3774" cx="0" cy="0" r="1" gradientUnits="userSpaceOnUse" gradientTransform="translate(18.3158 34.3902) rotate(-52.7598) scale(43.1981 47.9968)">
<stop stop-color="#0342E7"/>
<stop offset="0.536494" stop-color="#CB24FF"/>
</radialGradient>
<radialGradient id="paint1_radial_1893_3774" cx="0" cy="0" r="1" gradientUnits="userSpaceOnUse" gradientTransform="translate(-2.12304 13.6607) rotate(42.5655) scale(30.0684 33.8959)">
<stop stop-color="#16A9FE"/>
<stop offset="1" stop-color="#16A9FE" stop-opacity="0"/>
</radialGradient>
<clipPath id="clip0_1893_3774">
<rect width="144" height="34" fill="white"/>
</clipPath>
</defs>
</svg>
