<svg width="12" height="11" viewBox="0 0 12 11" fill="none" xmlns="http://www.w3.org/2000/svg">
<path d="M9.84766 0.25H8.28516L9.63281 3.375H11.625L9.84766 0.25ZM7.34766 0.25H4.63281L3.28516 3.375H8.69531L7.34766 0.25ZM2.13281 0.25L0.375 3.375H2.34766L3.69531 0.25H2.13281ZM0.375 4L4.63281 8.98047C4.69141 9.03906 4.76953 8.98047 4.73047 8.92188L2.32812 4H0.375ZM3.26562 4L5.94141 10.2305C5.96094 10.2695 6.01953 10.2695 6.03906 10.2305L8.71484 4H3.26562ZM7.25 8.92188C7.21094 8.98047 7.30859 9.03906 7.34766 8.98047L11.625 4H9.65234L7.25 8.92188Z" fill="white"/>
</svg>
