<svg width="38" height="22" viewBox="0 0 38 22" fill="none" xmlns="http://www.w3.org/2000/svg">
    <path d="M8.54297 10.7834C8.6615 10.5531 8.80065 10.2922 8.9604 10.0077L4.6296 8.58796C4.25553 8.46517 3.89143 8.28446 3.54715 8.05073C3.54629 8.05018 3.54543 8.04962 3.54454 8.04896C3.54434 8.04883 3.5441 8.04878 3.54381 8.0485L1.52797 6.67753C1.52741 6.67708 1.52688 6.67674 1.52635 6.6764L0.158447 5.74609L2.81375 9.25753C3.2862 9.88227 3.87311 10.3508 4.51104 10.6123L8.08165 12.0764C8.19471 11.6011 8.34661 11.165 8.54297 10.7834Z" fill="#FF66C4"/>
    <path d="M11.0711 7.83665L10.4009 6.99304C10.4005 6.99259 10.4001 6.99198 10.3997 6.99147L9.0108 5.24328C9.01056 5.24295 9.01021 5.2426 9.00998 5.24211L8.51185 4.61517C8.1631 4.17611 7.75862 3.83267 7.3239 3.59799C7.32017 3.59617 7.31627 3.59523 7.31257 3.59312C7.30809 3.59078 7.30454 3.58729 7.30028 3.58478C6.94912 3.39887 6.57849 3.28409 6.20121 3.24836L2.08301 2.85938L5.56753 4.28537C6.33113 4.59788 7.01885 5.16504 7.55649 5.92549L9.88737 9.22247C10.2472 8.76202 10.6417 8.29556 11.0711 7.83665Z" fill="#FF66C4"/>
    <path d="M29.9126 5.92671C30.4502 5.16627 31.138 4.59913 31.9015 4.2866L35.386 2.86059L31.2678 3.24959C30.8906 3.28532 30.52 3.40012 30.1688 3.586C30.1645 3.58851 30.161 3.592 30.1565 3.59435C30.1528 3.59646 30.1489 3.59739 30.1451 3.59921C29.7104 3.83389 29.3059 4.17734 28.9572 4.61639L28.4591 5.24333C28.4588 5.24382 28.4586 5.2442 28.4582 5.2445L27.0695 6.99273C27.069 6.9932 27.0685 6.99381 27.0683 6.99429L26.398 7.83787C26.8273 8.29678 27.2219 8.76324 27.5817 9.2237L29.9126 5.92671Z" fill="#FF66C4"/>
    <path d="M28.9261 10.7846C29.1225 11.1662 29.2744 11.6023 29.3875 12.0776L32.958 10.6135C33.596 10.352 34.183 9.88351 34.6553 9.25874L37.3106 5.74731L35.943 6.67738C35.9423 6.67781 35.9416 6.67829 35.9409 6.67882L33.9252 8.04969C33.925 8.04999 33.9247 8.05003 33.9245 8.05017C33.9236 8.05083 33.9228 8.05139 33.9219 8.05194C33.5777 8.28569 33.2135 8.46637 32.8396 8.58903L28.5087 10.0089C28.6684 10.2935 28.8076 10.5543 28.9261 10.7846Z" fill="#FF66C4"/>
    <path d="M6.09043 13.8788L4.99944 13.9198C4.52234 13.9379 4.03874 13.8552 3.57126 13.6803C3.56468 13.6777 3.55797 13.6756 3.55156 13.6726C3.0936 13.4986 2.65136 13.2366 2.24652 12.8937L1.18461 11.9941C1.18423 11.9939 1.18391 11.9936 1.18359 11.9933L0.158386 11.125L2.44948 14.3448C3.17975 15.3711 4.19334 15.985 5.23036 16.0291L7.31647 16.1179C7.18164 15.3825 7.07841 14.612 7.02037 13.8438L6.09103 13.8788C6.09083 13.8788 6.09058 13.8787 6.09043 13.8788Z" fill="#FF66C4"/>
    <path d="M36.3977 11.9936L35.3357 12.8931C34.9308 13.2362 34.4886 13.498 34.0306 13.672C34.0242 13.675 34.0175 13.6771 34.011 13.6798C33.5436 13.8547 33.0599 13.9373 32.5828 13.9193L31.4917 13.8782C31.4915 13.8781 31.4914 13.8783 31.4912 13.8782L30.5618 13.8432C30.5037 14.6114 30.4006 15.382 30.2657 16.1173L32.3518 16.0285C33.3888 15.9844 34.4024 15.3705 35.1327 14.3442L37.4238 11.1244L36.3984 11.9929C36.3982 11.9932 36.3979 11.9934 36.3977 11.9936Z" fill="#FF66C4"/>
    <path d="M26.3558 19.3301C24.9122 19.3217 23.5113 18.8721 22.1563 18.4371C20.8489 18.0175 19.6138 17.6211 18.3993 17.6211C17.1848 17.6211 15.9498 18.0175 14.6422 18.4371C13.2874 18.8721 11.8864 19.3217 10.4428 19.3301C10.4295 19.3302 10.4159 19.3302 10.4026 19.3302C9.68557 19.3302 9.0031 19.2179 8.34821 18.9906C8.76256 19.2519 9.24901 19.513 9.81527 19.7635C11.4558 20.4892 14.2766 21.3542 18.3993 21.3542C22.522 21.3542 25.3428 20.4892 26.9833 19.7635C27.5496 19.513 28.0362 19.2519 28.4505 18.9905C27.7956 19.2179 27.113 19.3302 26.396 19.3302C26.3826 19.3302 26.3693 19.3302 26.3558 19.3301Z" fill="white"/>
    <path d="M31.0767 11.3516C31.0727 11.3324 31.0715 11.3132 31.0705 11.2942C30.9052 10.534 30.6778 9.80658 30.3784 9.18547C30.3767 9.18316 30.3748 9.18104 30.3732 9.17873C30.3543 9.15083 30.3415 9.12071 30.3313 9.09002C30.1247 8.67973 29.8857 8.31892 29.6106 8.03092C28.0757 6.42434 23.9471 2.6875 18.7716 2.6875C13.596 2.6875 9.46744 6.42434 7.93256 8.03092C7.65741 8.31892 7.41841 8.67973 7.21185 9.09002C7.20176 9.12071 7.1888 9.15083 7.16998 9.17873C7.1683 9.18104 7.1664 9.18316 7.16477 9.18547C6.86532 9.80658 6.63794 10.534 6.47264 11.2942C6.47171 11.3132 6.47045 11.3324 6.4665 11.3516C6.4619 11.3738 6.45498 11.3949 6.4468 11.415C6.00807 13.5247 6.03981 15.8533 6.33299 16.8419C6.3375 16.8572 6.34303 16.8731 6.34856 16.8889C9.21831 19.1537 11.9976 18.3409 14.6862 17.5545C16.0282 17.1619 17.4161 16.7559 18.7716 16.7559C20.1271 16.7559 21.5149 17.1619 22.8571 17.5545C25.5456 18.3411 28.3248 19.1537 31.1946 16.8889C31.2001 16.8731 31.2057 16.8572 31.2102 16.8419C31.5033 15.8533 31.5351 13.5247 31.0963 11.415C31.0883 11.3949 31.0812 11.3738 31.0767 11.3516ZM12.9421 11.9014C12.5791 12.5941 12.0639 13.0777 11.5638 13.1948C11.4846 13.2135 11.407 13.2227 11.3316 13.2227C11.1435 13.2227 10.9694 13.1653 10.8192 13.0521C10.2397 12.6156 10.2284 11.4741 10.7931 10.3969C11.1561 9.70419 11.6714 9.22065 12.1714 9.10346C12.4483 9.03856 12.7058 9.0878 12.9159 9.24619C13.4953 9.68284 13.5065 10.8242 12.9421 11.9014ZM26.7239 13.0521C26.5739 13.1653 26.3996 13.2226 26.2115 13.2227C26.1361 13.2227 26.0585 13.2135 25.9793 13.1948C25.4793 13.0777 24.9641 12.5941 24.601 11.9014C24.0366 10.8242 24.0478 9.68284 24.6272 9.24619C24.8373 9.0879 25.0949 9.03856 25.3718 9.10346C25.8717 9.22065 26.387 9.70419 26.7502 10.3969C27.3147 11.4741 27.3034 12.6156 26.7239 13.0521Z" fill="white"/>
    <path d="M31.0767 11.3524C31.0727 11.3332 31.0715 11.314 31.0705 11.2951C30.9052 10.5348 30.6778 9.80739 30.3784 9.18629C30.3767 9.18397 30.3748 9.18185 30.3732 9.17954C30.3543 9.15164 30.3415 9.12153 30.3313 9.09083C30.1247 8.68054 29.8857 8.31973 29.6106 8.03173C28.0757 6.42515 23.9471 5.69141 18.7716 5.69141C13.596 5.69141 9.46744 6.42515 7.93256 8.03173C7.65741 8.31973 7.41841 8.68054 7.21185 9.09083C7.20176 9.12153 7.1888 9.15164 7.16998 9.17954C7.1683 9.18185 7.1664 9.18397 7.16477 9.18629C6.86532 9.80739 6.63794 10.5348 6.47264 11.2951C6.47171 11.314 6.47045 11.3332 6.4665 11.3524C6.4619 11.3746 6.45498 11.3957 6.4468 11.4158C6.00807 13.5255 6.03981 15.8542 6.33299 16.8427C6.3375 16.858 6.34303 16.8739 6.34856 16.8897C9.21831 19.1545 11.9976 18.3417 14.6862 17.5553C16.0282 17.1627 17.4161 16.7568 18.7716 16.7568C20.1271 16.7568 21.5149 17.1627 22.8571 17.5553C25.5456 18.3419 28.3248 19.1545 31.1946 16.8897C31.2001 16.8739 31.2057 16.858 31.2102 16.8427C31.5033 15.8542 31.5351 13.5255 31.0963 11.4158C31.0883 11.3957 31.0812 11.3746 31.0767 11.3524ZM12.9421 11.9022C12.5791 12.5949 12.0639 13.0785 11.5638 13.1957C11.4846 13.2143 11.407 13.2236 11.3316 13.2236C11.1435 13.2236 10.9694 13.1661 10.8192 13.0529C10.2397 12.6164 10.2284 11.4749 10.7931 10.3978C11.1561 9.705 11.6714 9.22146 12.1714 9.10428C12.4484 9.03937 12.7058 9.08862 12.9159 9.247C13.4953 9.68365 13.5065 10.8251 12.9421 11.9022ZM26.7239 13.0529C26.5739 13.1661 26.3996 13.2234 26.2115 13.2236C26.1361 13.2236 26.0585 13.2143 25.9793 13.1957C25.4793 13.0785 24.9641 12.5949 24.601 11.9022C24.0366 10.8251 24.0478 9.68365 24.6272 9.247C24.8373 9.08871 25.0949 9.03937 25.3718 9.10428C25.8717 9.22146 26.387 9.705 26.7502 10.3978C27.3147 11.4749 27.3034 12.6164 26.7239 13.0529Z" fill="#FF66C4"/>
</svg>
