<svg width="34" height="34" viewBox="0 0 34 34" fill="none" xmlns="http://www.w3.org/2000/svg">
<path d="M23.1875 17L32.5625 7.625C33.7812 6.5 33.7812 4.625 32.5625 3.5L30.5 1.4375C29.375 0.21875 27.5 0.21875 26.375 1.4375L17 10.8125L7.53125 1.4375C6.40625 0.21875 4.53125 0.21875 3.40625 1.4375L1.34375 3.5C0.125 4.625 0.125 6.5 1.34375 7.625L10.7188 17L1.34375 26.4688C0.125 27.5938 0.125 29.4688 1.34375 30.5938L3.40625 32.6562C4.53125 33.875 6.40625 33.875 7.53125 32.6562L17 23.2812L26.375 32.6562C27.5 33.875 29.375 33.875 30.5 32.6562L32.5625 30.5938C33.7812 29.4688 33.7812 27.5938 32.5625 26.4688L23.1875 17Z" fill="white"/>
</svg>
