<svg width="44" height="40" viewBox="0 0 44 40" fill="none" xmlns="http://www.w3.org/2000/svg">
<path fill-rule="evenodd" clip-rule="evenodd" d="M43.6864 2.60564L41.0808 0L35.0126 6.06632V1.30098H31.3271V12.3574H42.3836V8.67196H37.6183L43.6864 2.60564Z" fill="white"/>
<path fill-rule="evenodd" clip-rule="evenodd" d="M29.4843 30.7855H21.0335L17.348 27.1L21.0335 23.4145H29.4843V30.7855ZM31.3267 19.7294H29.4839V17.8867C29.4839 15.8541 27.831 14.2012 25.7984 14.2012H3.68549C1.65294 14.2012 0 15.8541 0 17.8867V36.3141C0 38.3467 1.65294 39.9996 3.68549 39.9996H25.7984C27.831 39.9996 29.4839 38.3467 29.4839 36.3141V34.4714H31.3267C32.3439 34.4714 33.1694 33.6458 33.1694 32.6286V21.5722C33.1694 20.555 32.3439 19.7294 31.3267 19.7294Z" fill="white"/>
<path fill-rule="evenodd" clip-rule="evenodd" d="M20.2705 27.1025C20.2705 28.1215 21.0961 28.9453 22.1133 28.9453C23.1304 28.9453 23.956 28.1215 23.956 27.1025C23.956 26.0872 23.1304 25.2598 22.1133 25.2598C21.0961 25.2598 20.2705 26.0872 20.2705 27.1025Z" fill="white"/>
</svg>
