<svg width="44" height="44" viewBox="0 0 44 44" fill="none" xmlns="http://www.w3.org/2000/svg">
<path fill-rule="evenodd" clip-rule="evenodd" d="M39.6008 30.8005H25.1135L20.7134 26.4005L25.1135 22.0004H39.6008V30.8005ZM27.5379 4.99305L29.4409 8.79912H18.0249L27.5379 4.99305ZM41.8007 17.5995H39.6007V13.1995C39.6007 10.775 37.6272 8.79939 35.2006 8.79939H34.3602L30.5673 1.21587C30.0569 0.192848 28.8491 -0.26476 27.7821 0.155447L6.17551 8.79939H4.40008C1.97343 8.79939 0 10.775 0 13.1995V39.5999C0 42.0266 1.97343 44 4.40008 44H35.2006C37.6272 44 39.6007 42.0266 39.6007 39.5999V35.1998H41.8007C43.0151 35.1998 44.0008 34.2142 44.0008 32.9998V19.7996C44.0008 18.5874 43.0151 17.5995 41.8007 17.5995Z" fill="white"/>
</svg>
