<svg viewBox="0 0 48 48" fill="none" xmlns="http://www.w3.org/2000/svg">
<path d="M48 43.5V18.8438C48 17.4375 47.25 16.125 46.2188 15.2812C43.875 13.5 42 12 30.8438 3.9375C29.25 2.8125 26.1562 0 24 0.09375C21.75 0 18.6562 2.8125 17.0625 3.9375C5.90625 12 4.03125 13.5 1.6875 15.2812C0.65625 16.125 0 17.4375 0 18.8438V43.5C0 46.0312 1.96875 48 4.5 48H43.5C45.9375 48 48 46.0312 48 43.5ZM41.8125 25.125L42.6562 26.3438C42.75 26.4375 42.75 26.625 42.75 26.8125C42.75 27 42.6562 27.2812 42.4688 27.375C40.3125 28.9688 37.3125 31.2188 32.625 34.5938C30.6562 36 27.2812 39.0938 24 39C20.625 39.0938 17.25 36 15.2812 34.5938C10.5938 31.2188 7.59375 28.9688 5.4375 27.375C5.25 27.2812 5.15625 27 5.15625 26.8125C5.15625 26.625 5.15625 26.4375 5.25 26.3438L6.09375 25.125C6.375 24.75 6.84375 24.6562 7.21875 24.9375C9.28125 26.5312 12.375 28.7812 17.0625 32.1562C18.6562 33.2812 21.75 36.0938 24 36C26.1562 36.0938 29.25 33.2812 30.8438 32.1562C35.5312 28.7812 38.625 26.5312 40.6875 24.9375C41.0625 24.6562 41.5312 24.75 41.8125 25.125Z" fill=""/>
</svg>
