<svg width="22" height="24" viewBox="0 0 22 24" fill="none" xmlns="http://www.w3.org/2000/svg">
<path d="M11 24C12.6406 24 13.9531 22.6875 13.9531 21H8C8 22.6875 9.3125 24 11 24ZM21.0781 17.0156C20.1875 16.0312 18.4531 14.5781 18.4531 9.75C18.4531 6.14062 15.9219 3.23438 12.4531 2.48438V1.5C12.4531 0.703125 11.7969 0 11 0C10.1562 0 9.5 0.703125 9.5 1.5V2.48438C6.03125 3.23438 3.5 6.14062 3.5 9.75C3.5 14.5781 1.76562 16.0312 0.875 17.0156C0.59375 17.2969 0.453125 17.6719 0.5 18C0.5 18.7969 1.0625 19.5 2 19.5H19.9531C20.8906 19.5 21.4531 18.7969 21.5 18C21.5 17.6719 21.3594 17.2969 21.0781 17.0156Z" fill="white"/>
</svg>
