<svg width="24" height="24" viewBox="0 0 24 24" fill="none" xmlns="http://www.w3.org/2000/svg">
<path d="M12 0.375C5.57812 0.375 0.375 5.57812 0.375 12C0.375 18.4219 5.57812 23.625 12 23.625C18.4219 23.625 23.625 18.4219 23.625 12C23.625 5.57812 18.4219 0.375 12 0.375ZM12 4.875C14.25 4.875 16.125 6.75 16.125 9C16.125 11.2969 14.25 13.125 12 13.125C9.70312 13.125 7.875 11.2969 7.875 9C7.875 6.75 9.70312 4.875 12 4.875ZM12 21C9.23438 21 6.75 19.7812 5.10938 17.8125C6 16.1719 7.73438 15 9.75 15C9.84375 15 9.9375 15.0469 10.0781 15.0938C10.6875 15.2812 11.2969 15.375 12 15.375C12.6562 15.375 13.3125 15.2812 13.875 15.0938C14.0156 15.0469 14.1094 15 14.25 15C16.2188 15 17.9531 16.1719 18.8438 17.8125C17.2031 19.7812 14.7188 21 12 21Z" fill="white"/>
</svg>
